<?xml version="1.0" encoding="utf-8"?>
<!-- Generator: Adobe Illustrator 15.0.0, SVG Export Plug-In . SVG Version: 6.00 Build 0)  -->
<!DOCTYPE svg PUBLIC "-//W3C//DTD SVG 1.1//EN" "http://www.w3.org/Graphics/SVG/1.1/DTD/svg11.dtd">
<svg version="1.1" id="レイヤー_1" xmlns="http://www.w3.org/2000/svg" xmlns:xlink="http://www.w3.org/1999/xlink" x="0px"
	 y="0px" width="512px" height="512px" viewBox="0 0 512 512" enable-background="new 0 0 512 512" xml:space="preserve">
<path fill="#121212" d="M480.754,277.166c-0.104-0.975-2.643-24.175-12.103-52.159c-3.179-9.402-6.719-18.149-10.606-26.233
	c0.005-0.051,0.016-0.101,0.021-0.15c2.92-32.844-2.701-66.796-2.942-68.226c-0.195-1.165-0.664-2.27-1.364-3.218
	c-1.319-1.788-14.076-17.612-56.014-24.493c-4.399-9.507-7.839-15.73-8.353-16.647c-0.897-1.604-2.354-2.827-4.089-3.432
	c-0.415-0.146-4.393-1.521-10.769-3.416c-11.841-32.563-38.421-50.229-39.569-50.979c-0.458-0.299-0.946-0.548-1.46-0.739
	c-1.51-0.569-37.021-13.497-70.649,12.539c-11.727-2.969-24.443-5.287-38.136-6.942c-31.609-3.821-56.324-2.542-57.361-2.485
	c-1.319,0.071-2.597,0.489-3.702,1.211c-1.972,1.286-29.996,19.819-54.342,48.353c-34.28,4.89-57.812,29.119-58.817,30.173
	c-0.552,0.578-1.008,1.237-1.351,1.958c-0.664,1.388-15.589,33.513,0.906,70.457c-10.512,14.597-17.063,25.91-17.854,27.289
	c-0.891,1.557-1.196,3.381-0.861,5.143c0.227,1.182,5.64,29.24,17.659,58.432c0.189,0.461,0.384,0.903,0.574,1.359
	c-0.173,0.275-0.334,0.56-0.473,0.861c-12.492,27.187-17.601,60.831-17.812,62.25c-0.243,1.629,0.058,3.291,0.851,4.733
	c0.258,0.469,6.419,11.598,16.253,22.835c13.979,15.974,28.093,24.075,41.954,24.075c0.127,0,0.249-0.016,0.375-0.021
	c17.209,31.928,37.419,55.028,38.905,56.711c0.918,1.037,2.104,1.801,3.429,2.207c0.937,0.288,23.314,7.086,52.924,9.584
	c7.264,0.613,14.276,0.919,21.051,0.919c5.678,0,11.18-0.22,16.507-0.647c0.215,0.214,0.44,0.42,0.688,0.609
	c26.499,20.584,56.83,28.592,58.106,28.922c0.617,0.16,1.251,0.239,1.885,0.239c0.439,0,0.882-0.039,1.314-0.116
	c5.593-0.991,13.948-6.055,22.351-13.541c6.952-6.192,17.114-16.896,26.478-32.895c3.575-0.19,5.73-0.357,6.056-0.384
	c1.876-0.149,3.627-0.995,4.909-2.371c0.447-0.48,6.449-6.96,14.479-17.126c2.483,0.122,4.941,0.185,7.362,0.185
	c28.632,0,52.125-7.933,53.232-8.312c1.022-0.353,1.956-0.917,2.738-1.66c6.258-5.941,18.387-29.651,16.354-65.259
	c4.436-5.533,8.814-11.441,13.138-17.729c17.399-25.31,27.122-47.11,27.528-48.026C480.683,279.801,480.89,278.475,480.754,277.166
	L480.754,277.166z M440.622,135.092c0.823,5.603,2.885,21.243,3.187,39.249c-8.916-12.612-19.084-22.74-30.454-30.306
	c-2.507-8.759-5.468-17.124-8.442-24.645C427.497,124.481,437.517,132.204,440.622,135.092L440.622,135.092z M396.277,139.719
	c9.036,27.324,11.138,49.578,6.244,65.11c-16.644-27.575-34.273-42.724-52.455-45.073c-1.604-7.072-2.937-11.618-3.038-11.966
	c-0.663-2.245-2.335-4.055-4.521-4.893c-1.401-0.539-17.811-6.738-38.155-10.699c0.604-16.474-12.684-30.505-39.559-41.806
	c8.29-6.928,25.554-12.036,61.165-6.785c22.913,3.38,44.265,9.899,51.654,12.293C380.911,102.184,389.577,119.458,396.277,139.719
	L396.277,139.719z M390.096,291.19c-13.124,20.009-26.658,30.818-40.348,32.282c7.587-15.951,9.951-29.657,7.02-40.938
	c-2.94-11.306-10.846-19.697-23.516-25.046c5.808-2.859,10.573-7.3,14.229-13.291c8.022-13.156,10.326-33.543,6.846-60.599
	c-0.342-2.66-0.725-5.246-1.129-7.736c25.655,8.659,48.046,55.77,56.032,77.276C406.939,259.206,400.281,275.663,390.096,291.19z
	 M186.153,389.469c-19.821-0.986-39.217-3.98-47.375-5.358c-10.75-27.286-22.908-68.999-19.968-90.728
	c7.652,12.875,16.38,21.489,26.112,25.728c4.721,2.054,9.573,3.079,14.552,3.078c8.357,0,17.06-2.893,26.024-8.661
	c0.019,0.019,0.034,0.033,0.051,0.051c-5.365,16.555-3.751,30.986,4.843,42.933c9.701,13.484,27.235,21.521,45.326,26.3
	C230.129,387.363,215.052,390.905,186.153,389.469L186.153,389.469z M169.882,115.765c13.304-12.874,28.316-23.11,33.943-26.785
	c29.264,4.807,83.078,20.013,85.417,40.876c-18.968-2.143-38.938-1.102-52.427,8.479c-8.354,5.936-13.526,14.35-15.485,25.082
	c-5.663-8.379-13.354-13.697-22.965-15.857c-13.795-3.101-31.056,0.678-51.463,11.224
	C143.972,144.648,157.34,127.904,169.882,115.765z M175.289,253.165c5.674,13.354,14.202,21.936,21.849,27.323
	c12.213,8.609,27.556,12.961,44.549,12.961c10.883,0,22.44-1.792,34.289-5.387c-5.763,16.088-20.713,29.5-33.933,34.91
	C204.959,321.32,175.295,290.647,175.289,253.165z M245.187,183.254c0.635,0,1.263,0.032,1.894,0.051
	c-2.92,3.256-5.247,7.107-6.692,11.396c-2.411,7.144-2.222,14.493,0.343,21.43c-2.46,5.434-6.342,6.922-13.721,9.336
	c-10.76,3.522-25.057,8.226-30.672,33.847c-7.992-9.925-12.235-23.427-12.427-39.748
	C195.812,197.941,218.814,183.255,245.187,183.254L245.187,183.254z M277.089,271.867c-25.937,9.169-50.162,8.673-67.375-1.201
	c2.757-24.599,11.245-27.39,21.979-30.9c5.78-1.894,12.551-4.114,17.836-9.896c1.665,1.746,3.508,3.421,5.537,5.012
	c14.497,11.358,22.286,23.663,23.263,36.673C277.912,271.624,277.498,271.722,277.089,271.867L277.089,271.867z M292.949,281.907
	c2.117-14.974-1.125-37.339-28.604-58.871c-8.866-6.946-12.402-15.521-9.7-23.523c2.26-6.696,8.568-11.63,15.055-11.812
	c26.486,9.951,45.388,35.532,45.388,65.452c0,27.168-15.589,50.747-38.281,62.311C284.985,305.993,291.176,294.443,292.949,281.907
	L292.949,281.907z M329.404,242.221c-5.384-41.69-41.084-74.015-84.218-74.015c-3.191,0-6.337,0.192-9.438,0.537
	c0.906-8.148,4.127-14.124,9.773-18.138c20.285-14.423,67.471-2.229,88.081,5.051c5.024,18.897,12.821,61.387,1.025,80.714
	C333.163,238.779,331.42,240.71,329.404,242.221L329.404,242.221z M195.07,162.24c6.926,1.556,12.15,5.886,15.896,13.192
	c-29.838,13.188-50.723,43.054-50.723,77.721c0,18.131,5.729,34.938,15.442,48.748c-9.225,5.503-17.363,6.626-24.75,3.411
	c-26.323-11.448-40.152-73.292-44.014-100.795C125.186,188.658,169.103,156.408,195.07,162.24L195.07,162.24z M202.609,347.719
	c-4.76-6.616-6.167-14.443-4.271-23.755c13.439,8.921,29.544,14.134,46.85,14.134c40.487,0,74.432-28.484,82.895-66.46
	c7.807,3.445,12.46,8.283,14.123,14.68c3.243,12.458-4.389,32.385-21.487,56.104c-10.809,14.992-22.476,27.486-27.12,32.296
	C271.171,374.867,218.926,370.401,202.609,347.719L202.609,347.719z M327.435,41.29c3.4,2.413,18.476,13.82,28.476,32.895
	c-8.284-1.999-17.728-3.973-27.555-5.43c-1.316-0.194-2.619-0.378-3.906-0.548c-0.145-0.132-0.289-0.263-0.445-0.385
	c-11.485-8.947-25.597-16.345-42.211-22.155C303.192,34.526,323.243,39.944,327.435,41.29L327.435,41.29z M170.21,45.529
	c12.179-0.38,76.132-1.199,122.965,21.07c-20.661,1.041-35.287,7.103-43.7,18.126c-23.151-7.571-45.22-10.915-46.191-11.063
	c-1.75-0.259-3.541,0.104-5.05,1.033c-0.841,0.517-20.795,12.857-38.652,30.096c-1.416,1.367-2.838,2.792-4.249,4.257
	c-0.588-0.194-1.206-0.327-1.852-0.373c-20.875-1.441-41.563,9.8-59.789,25.271C110.441,88.636,160.425,52.307,170.21,45.529z
	 M62.247,119.859c3.272-3.119,15.396-13.922,32.46-20.435c-10.618,16.028-18.811,34.123-20.979,53.424
	c-0.021,0.188-0.028,0.377-0.036,0.563c-4.612,5.054-8.943,10.186-12.941,15.192C53.203,144.714,60.243,124.739,62.247,119.859
	L62.247,119.859z M46.67,215.118c4.088-6.781,16.74-26.971,33.804-46.683c16.233-18.755,39.367-40.369,62.291-44.229
	c-9.063,13.078-14.552,27.925-9.313,42.234c-1.214,0.75-2.436,1.515-3.67,2.307c-20.08,12.899-35.259,26.647-35.896,27.229
	c-1.801,1.637-2.696,4.043-2.407,6.459c0.118,0.985,2.982,24.486,10.605,50.411c2.374,8.073,4.938,15.45,7.681,22.134
	c-6.628,9.553-8.1,25.164-4.403,47.395c-9.458-3.555-17.871-11.636-25.193-22.04c-0.153-0.25-0.319-0.493-0.504-0.727
	C62.12,274.253,50.918,235.719,46.67,215.118L46.67,215.118z M46.589,337.757c1.174-6.776,4.856-26.051,11.609-44.478
	c2.593,4.869,5.264,9.365,8.018,13.469c-0.016,22.774,6.975,45.823,16.321,66.464C67.195,367.74,52.733,348.066,46.589,337.757z
	 M139.505,434.808c-7.948-9.449-47.483-58.479-56.439-108.569c8.041,6.882,16.605,11.078,25.673,12.563
	c0.584,2.434,1.211,4.923,1.89,7.479c6.637,24.983,15.398,46.459,15.771,47.362c0.965,2.355,3.058,4.063,5.56,4.538
	c1.063,0.201,26.355,4.951,53.31,6.305c0.841,0.042,1.665,0.076,2.488,0.111c8.747,16.546,30.265,27.751,64.119,33.426
	C206.308,451.786,150.754,437.904,139.505,434.808L139.505,434.808z M284.19,472.886c-5.489-1.643-22.021-7.074-38.994-17.566
	c13.614-2.938,25.763-7.598,36.39-13.939c10.293,0.688,20.111,0.929,28.669,0.929c2.058,0,4.037-0.014,5.938-0.037
	C303.078,461.407,289.207,470.805,284.19,472.886z M336.302,426.498c-8.509,0.516-34.409,1.705-61.594-0.74
	c-32.999-2.974-56.52-10.335-68.047-21.078c25.207-1.039,40.018-7.13,45-18.44c18.195,3.121,34.729,3.51,41.811,3.51
	c1.942,0,3.177-0.027,3.533-0.038c1.904-0.053,3.72-0.824,5.074-2.161c0.652-0.646,16.158-15.996,30.718-36.155
	c3.218-4.454,6.124-8.78,8.729-12.979c1.727,0.195,3.432,0.303,5.109,0.303c16.375,0,30.381-8.992,41.812-21.063
	C395.886,351.173,356.055,404.602,336.302,426.498L336.302,426.498z M413.686,400.019c-5.472,1.648-22.563,6.306-42.729,6.863
	c2.008-2.844,4.041-5.818,6.063-8.897c0.055-0.021,0.108-0.037,0.164-0.062c16.132-6.911,31.88-18.262,47.085-33.884
	C422.682,383.052,416.715,395.86,413.686,400.019z M391.81,372.344c13.703-27.913,16.306-50.82,7.738-68.314
	c15.566-21.927,24.142-46.498,24.806-48.444c0.546-1.598,0.539-3.331-0.02-4.924c-0.239-0.679-4.813-13.607-12.838-29.528
	c0.261-0.317,0.506-0.653,0.716-1.022c8.407-14.712,9.219-33.515,6.396-52.359c17.971,17.896,29.146,42.509,35.688,61.774
	c7.438,21.911,10.425,41.146,11.241,47.229C460.443,287.552,432.911,342.954,391.81,372.344L391.81,372.344z"/>
</svg>
